 <svg version="1.0" xmlns="http://www.w3.org/2000/svg" width="75.000000pt" height="75.000000pt" viewBox="0 0 700.000000 700.000000" preserveAspectRatio="xMidYMid meet">
<metadata>
Created by potrace 1.12, written by Peter Selinger 2001-2015
</metadata>
<g transform="translate(0.000000,700.000000) scale(0.100000,-0.100000)" fill="#000000" stroke="none">
<path d="M3365 6904 c-240 -14 -476 -58 -695 -131 -115 -38 -118 -39 -205 -78
-219 -100 -379 -197 -565 -343 -105 -83 -304 -279 -368 -363 -69 -90 -196
-271 -219 -314 -34 -62 -139 -275 -158 -320 -9 -22 -20 -48 -25 -57 -6 -10
-10 -27 -10 -37 0 -11 -5 -23 -10 -26 -6 -3 -10 -15 -10 -25 0 -10 -6 -31 -14
-47 -16 -31 -23 -55 -60 -219 -14 -61 -26 -122 -26 -136 0 -14 -4 -38 -10 -54
-5 -16 -12 -78 -15 -139 -4 -60 -9 -145 -11 -188 -3 -43 -1 -83 4 -90 5 -7 10
-68 11 -135 1 -68 6 -132 11 -142 6 -10 10 -37 10 -60 0 -23 4 -50 10 -60 5
-10 17 -56 26 -102 8 -45 19 -92 23 -103 5 -11 16 -45 25 -75 10 -30 21 -64
26 -75 5 -11 18 -47 30 -80 35 -96 134 -302 171 -357 11 -14 19 -29 19 -32 0
-3 23 -38 51 -78 27 -40 61 -90 74 -110 65 -98 253 -299 396 -422 148 -127
385 -286 428 -286 10 0 43 21 73 48 51 44 170 134 207 157 146 89 167 101 208
122 32 16 34 16 56 -5 13 -12 28 -22 33 -22 6 0 33 -11 60 -25 27 -14 55 -25
62 -25 7 0 20 -4 30 -9 69 -35 169 -42 195 -13 31 34 40 77 24 109 -18 33 -34
42 -138 77 -88 30 -224 97 -289 145 -198 143 -375 378 -430 571 -7 25 -16 54
-21 65 -37 85 -52 344 -29 481 13 73 41 176 52 188 4 6 8 20 8 32 0 13 5 26
10 29 6 3 10 15 10 26 0 11 11 37 25 59 14 22 25 42 25 45 0 26 202 282 232
294 5 2 19 -6 31 -17 12 -11 47 -32 77 -47 30 -14 63 -30 72 -36 10 -5 25 -9
33 -9 8 0 23 -4 33 -9 25 -14 118 -41 139 -41 11 0 23 -4 28 -9 6 -5 30 -11
55 -14 25 -3 70 -10 100 -16 70 -12 358 -13 430 0 30 5 76 12 103 15 26 4 50
11 53 15 3 5 15 9 26 9 23 0 161 44 190 60 10 6 22 10 26 10 5 0 42 18 83 41
l74 40 58 -63 c91 -100 172 -230 229 -368 6 -14 14 -33 19 -42 5 -10 9 -25 9
-33 0 -9 6 -37 14 -63 30 -98 39 -189 33 -319 -3 -70 -11 -146 -17 -168 -7
-22 -16 -58 -22 -80 -5 -22 -14 -48 -19 -57 -5 -10 -9 -25 -9 -33 0 -8 -4 -23
-9 -33 -5 -9 -28 -55 -51 -102 -100 -208 -271 -376 -510 -506 -48 -26 -80 -51
-88 -68 -30 -61 15 -136 82 -136 28 0 88 25 141 59 18 12 29 8 90 -30 115 -71
167 -112 230 -183 126 -142 131 -146 164 -146 33 0 59 13 196 95 295 179 567
444 771 751 80 121 199 347 228 434 11 30 22 60 26 65 3 6 12 30 19 55 7 25
18 57 23 72 12 32 37 127 58 223 36 159 41 213 47 470 7 319 0 396 -58 628
-29 117 -57 214 -70 239 -5 10 -9 24 -9 31 0 7 -9 31 -19 53 -11 22 -23 52
-26 67 -4 15 -11 30 -16 33 -5 3 -9 11 -9 19 0 7 -16 41 -35 75 -19 34 -35 66
-35 71 0 6 -16 35 -35 65 -19 30 -35 56 -35 59 0 3 -24 39 -52 81 -29 41 -64
92 -78 113 -81 119 -292 338 -450 467 -73 59 -219 163 -250 177 -8 4 -31 17
-50 28 -95 58 -157 90 -255 132 -111 47 -130 54 -200 77 -38 12 -79 26 -90 31
-11 4 -31 10 -45 13 -14 3 -52 12 -85 21 -89 25 -250 48 -445 65 -103 9 -135
9 -235 4z m350 -202 c108 -12 226 -32 247 -43 10 -5 31 -9 47 -9 17 0 33 -4
36 -10 3 -5 16 -10 27 -10 26 0 209 -62 287 -97 92 -41 275 -134 292 -149 8
-8 19 -14 23 -14 4 0 58 -36 120 -80 110 -79 386 -323 386 -341 0 -6 20 -31
43 -57 107 -116 229 -304 321 -493 31 -64 56 -122 56 -128 0 -6 4 -19 9 -29 5
-9 17 -37 26 -62 9 -25 21 -53 26 -62 5 -10 9 -27 9 -39 0 -11 5 -29 10 -40
21 -39 56 -223 79 -419 37 -314 -25 -761 -143 -1033 -9 -21 -16 -42 -16 -48 0
-23 -131 -275 -197 -378 -111 -174 -300 -390 -447 -510 -107 -87 -230 -180
-239 -181 -5 0 -28 -13 -52 -30 -24 -16 -48 -30 -52 -30 -5 0 -22 18 -39 40
-35 50 -215 197 -249 206 -14 3 -25 11 -25 17 0 5 27 35 60 65 112 101 240
276 304 418 15 32 31 67 36 76 6 10 10 26 10 36 0 10 7 27 15 38 8 10 15 30
15 44 0 15 4 30 9 35 10 11 14 39 32 223 13 124 5 274 -20 392 -6 25 -14 64
-19 88 -5 24 -15 49 -21 55 -6 6 -11 19 -11 29 0 10 -4 26 -9 36 -5 9 -26 53
-47 97 -60 127 -140 241 -247 352 -55 57 -104 103 -110 103 -30 0 -47 34 -47
92 0 68 12 98 41 98 42 0 239 151 239 183 0 5 8 21 19 35 10 15 27 52 36 82
10 30 22 63 26 72 12 23 12 203 0 226 -5 9 -16 42 -26 73 -21 69 -102 179
-164 225 -25 18 -71 45 -101 60 -30 15 -63 31 -72 35 -27 13 -257 11 -295 -3
-32 -12 -35 -11 -81 33 -69 67 -184 139 -220 139 -10 0 -24 6 -30 12 -19 19
-283 17 -342 -1 -25 -8 -49 -18 -55 -23 -5 -4 -15 -8 -23 -8 -22 0 -135 -80
-174 -123 -35 -41 -37 -41 -70 -29 -39 14 -269 17 -296 3 -9 -4 -48 -23 -87
-41 -123 -59 -229 -187 -274 -331 -6 -19 -11 -82 -11 -140 0 -119 24 -202 81
-286 67 -97 129 -145 272 -207 36 -17 37 -18 37 -71 0 -51 -2 -54 -42 -84
-117 -86 -281 -274 -354 -406 -54 -98 -94 -190 -94 -215 0 -10 -4 -21 -9 -24
-5 -3 -11 -18 -14 -33 -4 -16 -11 -48 -16 -73 -5 -25 -14 -65 -19 -90 -17 -79
-15 -363 3 -454 20 -102 34 -156 46 -178 5 -10 9 -24 9 -32 0 -8 6 -27 14 -43
8 -15 35 -71 61 -124 60 -121 150 -242 254 -342 45 -42 81 -83 81 -91 0 -8
-10 -16 -23 -20 -28 -7 -202 -122 -269 -177 -26 -21 -49 -39 -52 -39 -9 0
-228 160 -271 198 -212 187 -382 387 -500 587 -16 28 -35 59 -42 70 -12 20
-26 50 -57 115 -9 19 -20 42 -25 50 -5 8 -13 26 -19 40 -5 14 -15 39 -22 55
-6 17 -18 50 -26 75 -8 25 -19 54 -23 65 -18 43 -38 121 -66 250 -68 316 -56
756 30 1060 9 33 19 72 22 88 3 15 9 30 14 33 5 3 9 13 9 22 0 56 161 381 269
542 173 259 381 466 651 647 109 73 355 203 384 203 3 0 25 8 49 19 60 27 100
41 141 52 20 5 53 14 74 20 20 6 55 14 77 19 180 39 247 50 295 51 30 0 73 4
95 9 44 10 276 5 400 -8z m-156 -764 c161 -51 267 -169 300 -332 12 -61 -3
-161 -34 -232 -12 -28 -50 -81 -84 -118 -71 -79 -79 -114 -35 -165 37 -45 91
-43 146 3 43 37 138 155 138 172 0 5 9 28 19 50 10 21 27 79 37 128 17 85 17
93 -1 198 -10 59 -15 111 -12 114 10 10 140 5 151 -6 5 -5 18 -10 28 -10 55 0
165 -110 199 -199 17 -45 20 -70 16 -128 -7 -90 -35 -151 -100 -215 -59 -59
-90 -68 -121 -39 -33 31 -76 27 -112 -10 l-29 -30 -5 -217 -5 -217 -50 -24
c-53 -26 -62 -30 -140 -54 -47 -15 -78 -22 -203 -46 -70 -14 -306 -14 -391 0
-101 16 -259 59 -331 90 l-65 27 -3 111 c-3 121 -3 121 64 134 47 9 157 62
179 87 28 31 26 92 -4 124 -33 35 -87 34 -160 -1 -48 -23 -69 -27 -141 -27
-107 0 -177 31 -243 104 -61 68 -80 112 -85 201 -9 157 67 278 210 330 56 20
172 26 183 9 3 -5 -1 -37 -9 -71 -9 -33 -16 -87 -16 -119 0 -55 2 -60 37 -89
43 -35 63 -38 103 -14 33 19 50 51 50 96 0 86 44 188 112 262 86 95 169 133
292 134 44 1 96 -4 115 -11z"></path>
<path d="M2996 4000 c-51 -56 -50 -98 3 -151 34 -34 45 -39 84 -39 38 0 52 6
81 34 29 26 36 41 36 70 0 78 -46 126 -121 126 -42 0 -50 -4 -83 -40z"></path>
<path d="M3709 4017 c-92 -77 -44 -207 75 -207 27 0 44 8 71 35 19 20 38 47
41 61 8 30 -19 87 -55 115 -33 27 -98 25 -132 -4z"></path>
<path d="M3662 3435 c-46 -24 -106 -50 -132 -59 -54 -18 -165 -22 -175 -6 -3
6 -16 10 -29 10 -12 0 -62 20 -109 45 -102 53 -139 57 -179 18 -42 -40 -39
-95 5 -137 52 -48 157 -97 247 -115 112 -22 175 -24 256 -7 80 17 92 21 154
51 111 53 149 90 150 146 0 36 -21 64 -67 88 -29 15 -27 16 -121 -34z"></path>
<path d="M125 1283 c-30 -8 -75 -43 -75 -59 0 -7 20 -45 45 -84 25 -39 45 -72
45 -75 0 -2 16 -29 35 -59 19 -30 35 -58 35 -62 0 -4 6 -15 14 -23 7 -9 30
-47 51 -86 20 -38 41 -74 46 -79 5 -6 9 -92 9 -191 0 -172 1 -183 21 -201 14
-13 35 -19 65 -18 73 2 74 3 74 204 l0 177 49 84 c26 46 62 108 80 137 17 29
31 56 31 59 0 4 6 14 14 22 7 9 24 36 37 61 13 25 34 59 46 76 13 17 23 40 23
52 0 26 -48 61 -93 69 -42 6 -40 10 -202 -304 -27 -53 -56 -99 -62 -101 -7 -2
-18 9 -24 25 -11 31 -23 54 -61 123 -39 72 -44 82 -73 140 -55 109 -75 126
-130 113z"></path>
<path d="M4557 1270 c-17 -14 -18 -38 -17 -455 0 -360 3 -442 14 -454 11 -10
53 -13 198 -12 174 2 186 3 235 27 63 30 116 90 132 147 9 29 11 126 9 312 -3
262 -4 271 -27 317 -30 59 -90 102 -161 117 -30 6 -125 12 -209 14 -126 2
-158 -1 -174 -13z m363 -148 c57 -42 61 -65 58 -326 l-3 -238 -38 -33 c-36
-31 -43 -33 -130 -37 -51 -2 -98 0 -104 5 -16 12 -19 643 -3 649 6 2 52 2 102
1 72 -2 98 -7 118 -21z"></path>
<path d="M4038 943 c-8 -10 -24 -49 -36 -88 -11 -38 -33 -104 -48 -145 -15
-41 -30 -91 -33 -110 -7 -39 -37 -54 -47 -23 -12 37 -127 319 -140 346 -11 20
-22 27 -44 27 -35 0 -110 -44 -110 -64 0 -8 14 -43 31 -78 18 -35 35 -70 39
-78 3 -8 18 -37 32 -65 115 -223 131 -263 124 -312 -10 -74 -88 -143 -161
-143 -41 0 -59 -21 -60 -72 -1 -54 28 -78 88 -71 161 19 205 61 295 285 34 84
96 236 137 338 41 102 75 190 75 197 0 13 -69 56 -106 67 -13 4 -26 0 -36 -11z"></path>
<path d="M5905 944 c-44 -24 -65 -45 -65 -65 0 -10 21 -60 46 -111 25 -51 49
-100 53 -108 5 -8 13 -24 18 -35 32 -59 63 -128 63 -137 0 -6 11 -26 25 -44
28 -37 32 -76 11 -125 -25 -59 -99 -109 -161 -109 -17 0 -36 -5 -43 -12 -16
-16 -16 -100 0 -116 17 -17 113 -15 171 3 57 17 117 73 146 137 59 131 262
651 259 666 -4 23 -107 78 -125 66 -14 -9 -123 -314 -123 -344 0 -9 -6 -25
-14 -35 -12 -16 -16 -17 -30 -6 -9 7 -16 20 -16 29 0 9 -23 70 -51 136 -28 67
-57 137 -65 156 -31 74 -46 82 -99 54z"></path>
<path d="M875 930 c-16 -18 -18 -39 -16 -217 3 -226 7 -240 89 -314 60 -54
120 -73 206 -67 76 6 128 30 178 80 63 63 69 87 70 312 1 182 -1 200 -17 213
-29 20 -92 16 -115 -7 -18 -18 -20 -33 -20 -190 0 -186 -8 -223 -53 -253 -40
-26 -108 -22 -141 8 -14 13 -31 36 -36 50 -6 15 -10 103 -10 196 0 156 -2 171
-20 189 -27 27 -90 27 -115 0z"></path>
<path d="M1794 935 c-18 -8 -41 -26 -53 -41 -23 -29 -51 -27 -51 4 0 10 -5 23
-12 30 -17 17 -103 15 -117 -2 -19 -23 -17 -544 1 -563 8 -7 35 -14 61 -15 79
-4 81 2 78 204 -2 167 -2 174 21 208 40 60 125 66 174 13 24 -25 24 -29 24
-208 0 -170 1 -183 20 -200 13 -12 36 -18 65 -18 74 0 75 2 75 200 0 135 3
180 15 203 34 67 111 81 167 31 l33 -29 1 -189 2 -188 33 -18 c22 -11 45 -16
64 -12 56 10 57 15 56 235 -1 111 -6 212 -11 226 -16 42 -90 112 -136 130 -82
31 -187 0 -233 -69 -29 -44 -48 -47 -62 -10 -30 79 -130 115 -215 78z"></path>
<path d="M2850 939 c-14 -6 -39 -24 -57 -41 -37 -35 -60 -32 -65 9 -3 26 -7
28 -52 31 -87 6 -86 10 -86 -293 0 -253 1 -263 21 -281 26 -24 92 -23 119 1
18 17 20 32 20 187 0 180 6 210 52 242 12 9 40 16 61 16 31 0 46 -7 73 -34
l34 -34 0 -185 c0 -139 3 -187 13 -195 22 -19 90 -24 117 -10 l25 14 -4 175
c-3 148 -1 181 13 207 29 56 98 77 155 48 53 -28 54 -32 52 -229 -2 -170 -1
-184 17 -200 32 -30 83 -32 115 -7 l28 23 -3 201 c-3 185 -5 204 -25 242 -26
48 -70 88 -122 110 -78 34 -205 -8 -239 -79 -16 -33 -48 -36 -57 -4 -23 75
-125 118 -205 86z"></path>
<path d="M5372 931 c-88 -31 -112 -68 -76 -119 17 -25 45 -28 77 -8 12 8 53
16 91 19 63 5 70 3 97 -22 30 -27 52 -80 40 -98 -3 -6 -50 -13 -103 -16 -115
-6 -200 -41 -229 -92 -21 -37 -24 -125 -5 -180 33 -97 207 -114 291 -27 38 38
65 42 65 9 0 -37 33 -61 76 -54 64 11 64 9 64 222 0 207 -5 235 -56 302 -55
72 -219 104 -332 64z m226 -334 c19 -23 -5 -83 -46 -117 -65 -54 -152 -32
-152 38 0 34 15 55 53 74 37 19 131 22 145 5z"></path>
<path d="M6635 938 c-44 -15 -93 -55 -110 -88 -8 -16 -16 -56 -17 -89 -2 -86
26 -121 124 -151 40 -12 86 -27 101 -32 73 -28 99 -81 55 -112 -32 -23 -133
-20 -178 4 -86 47 -79 45 -100 24 -10 -10 -22 -31 -25 -46 -17 -67 106 -124
250 -116 102 6 148 27 187 87 26 40 29 53 26 104 -3 37 -11 67 -24 85 -27 36
-103 74 -189 95 -86 21 -114 45 -97 82 17 37 45 43 157 33 97 -8 100 -7 117
14 24 32 22 63 -5 81 -51 33 -207 48 -272 25z"></path>
</g>
</svg>
